<?xml version="1.0" standalone="no"?>
<!DOCTYPE svg PUBLIC "-//W3C//DTD SVG 20010904//EN"
 "http://www.w3.org/TR/2001/REC-SVG-20010904/DTD/svg10.dtd">
<svg version="1.0" xmlns="http://www.w3.org/2000/svg"
 width="121.000000pt" height="24.000000pt" viewBox="0 0 121.000000 24.000000"
 preserveAspectRatio="xMidYMid meet">

<g transform="translate(0.000000,24.000000) scale(0.100000,-0.100000)"
fill="#000000" stroke="none">
<path d="M1048 224 c-86 -46 -72 -187 20 -215 33 -9 45 -9 75 6 20 9 41 14 46
10 8 -4 11 27 11 94 0 84 -2 99 -15 95 -8 -3 -24 1 -37 10 -28 20 -64 20 -100
0z m94 -61 c39 -35 11 -103 -43 -103 -29 0 -59 31 -59 60 0 50 64 78 102 43z"/>
<path d="M10 115 c0 -106 2 -116 18 -113 13 2 18 16 22 56 l5 54 48 -56 c34
-40 55 -56 73 -56 13 0 24 3 24 7 0 4 -18 28 -40 54 -22 26 -40 51 -40 55 0 4
19 28 43 53 l42 46 -30 3 c-25 3 -37 -4 -77 -50 l-47 -53 -3 55 c-2 43 -7 56
-20 58 -16 3 -18 -7 -18 -113z"/>
<path d="M397 219 c-9 -6 -26 -7 -38 -4 -19 6 -20 3 -17 -102 3 -108 3 -108
28 -108 24 0 25 3 30 79 4 71 7 80 28 87 17 6 27 4 42 -11 16 -16 20 -34 20
-90 0 -68 1 -70 25 -70 24 0 25 2 25 75 0 41 -5 86 -12 100 -21 46 -89 68
-131 44z"/>
<path d="M262 197 c-19 -20 -22 -35 -22 -110 0 -86 0 -87 25 -87 l25 0 0 110
c0 61 -1 110 -3 110 -2 0 -13 -10 -25 -23z"/>
<path d="M597 202 c-23 -25 -21 -75 3 -97 11 -10 42 -20 70 -23 74 -7 61 -22
-20 -22 l-70 0 0 -31 0 -31 81 4 c70 3 83 6 100 27 41 51 9 102 -70 111 -72 7
-68 24 7 28 58 3 62 4 62 27 0 24 -2 25 -73 25 -59 0 -77 -4 -90 -18z"/>
<path d="M800 195 c0 -14 5 -25 10 -25 6 0 10 -16 10 -35 0 -77 49 -135 115
-135 21 0 25 5 25 30 0 26 -4 30 -28 30 -39 0 -52 17 -52 67 l0 43 40 0 c36 0
40 3 40 25 0 25 -1 25 -80 25 -79 0 -80 0 -80 -25z"/>
</g>
</svg>
